<?xml version="1.0" standalone="no"?>
<!DOCTYPE svg PUBLIC "-//W3C//DTD SVG 20010904//EN"
 "http://www.w3.org/TR/2001/REC-SVG-20010904/DTD/svg10.dtd">
<svg version="1.0" xmlns="http://www.w3.org/2000/svg"
 width="2048.000000pt" height="2048.000000pt" viewBox="0 0 2048.000000 2048.000000"
 preserveAspectRatio="xMidYMid meet">
<metadata>
Created by potrace 1.11, written by Peter Selinger 2001-2013
</metadata>
<g transform="translate(0.000000,2048.000000) scale(0.100000,-0.100000)"
fill="#000000" stroke="none">
<path d="M9900 19108 c-36 -5 -83 -15 -105 -23 -24 -8 -104 -16 -205 -20 -164
-5 -277 -20 -315 -42 -31 -17 -69 -23 -209 -33 -71 -5 -132 -13 -135 -18 -16
-23 -95 -42 -177 -42 -78 0 -135 -14 -154 -39 -8 -10 -99 -30 -172 -37 -38 -3
-68 -10 -68 -15 0 -17 -67 -36 -145 -41 -66 -4 -81 -9 -97 -28 -13 -16 -35
-25 -75 -31 -97 -14 -122 -21 -134 -35 -6 -8 -24 -14 -40 -14 -15 0 -30 -4
-33 -9 -3 -4 -28 -11 -56 -15 -27 -4 -50 -11 -50 -15 0 -13 -76 -41 -110 -41
-40 0 -80 -17 -80 -34 0 -17 -22 -26 -64 -26 -18 0 -60 -14 -92 -30 -32 -17
-82 -36 -111 -42 -36 -9 -55 -19 -62 -34 -7 -17 -21 -22 -65 -27 -41 -4 -61
-12 -74 -27 -11 -13 -33 -23 -60 -27 -23 -3 -42 -10 -42 -14 0 -5 -6 -9 -14
-9 -8 0 -21 -6 -28 -13 -7 -8 -39 -23 -71 -34 -31 -11 -68 -29 -82 -41 -14
-12 -34 -22 -45 -22 -12 0 -23 -7 -26 -15 -4 -8 -16 -15 -29 -15 -13 0 -25 -7
-29 -15 -3 -8 -17 -15 -31 -15 -14 0 -25 -4 -25 -10 0 -5 -9 -10 -19 -10 -11
0 -32 -11 -46 -24 -15 -14 -41 -28 -58 -31 -57 -11 -65 -15 -70 -34 -3 -12
-18 -21 -40 -25 -22 -4 -38 -14 -42 -25 -3 -12 -19 -21 -40 -25 -19 -4 -47
-17 -62 -29 -38 -30 -88 -57 -106 -57 -8 0 -22 -11 -31 -25 -9 -14 -25 -25
-35 -25 -10 0 -24 -7 -31 -15 -7 -8 -19 -15 -26 -15 -8 0 -14 -4 -14 -8 0 -5
-19 -17 -42 -28 -23 -10 -52 -29 -65 -42 -13 -13 -37 -28 -53 -34 -17 -5 -30
-14 -30 -19 0 -5 -7 -9 -15 -9 -8 0 -15 -4 -15 -9 0 -5 -13 -12 -30 -16 -16
-3 -32 -15 -35 -25 -3 -10 -27 -29 -53 -41 -26 -13 -56 -33 -67 -46 -11 -13
-28 -23 -38 -23 -10 0 -22 -11 -27 -25 -6 -15 -17 -25 -30 -25 -11 0 -23 -7
-26 -15 -4 -8 -10 -15 -16 -15 -5 0 -24 -11 -42 -25 -18 -14 -40 -25 -50 -25
-9 0 -20 -8 -23 -17 -10 -26 -29 -43 -48 -43 -8 0 -21 -11 -27 -25 -7 -16 -19
-25 -35 -25 -14 0 -23 -6 -23 -15 0 -9 -13 -24 -30 -33 -16 -9 -30 -20 -30
-24 0 -5 -8 -8 -17 -8 -10 0 -26 -14 -35 -30 -10 -18 -25 -30 -37 -30 -11 0
-28 -11 -37 -25 -9 -13 -24 -27 -33 -30 -10 -3 -23 -17 -29 -30 -7 -15 -20
-25 -32 -25 -11 0 -20 -7 -20 -15 0 -8 -7 -15 -15 -15 -8 0 -15 -7 -15 -15 0
-8 -4 -15 -8 -15 -10 0 -64 -44 -121 -100 -25 -25 -59 -54 -76 -64 -16 -11
-34 -25 -38 -33 -4 -7 -14 -13 -22 -13 -8 0 -20 -10 -26 -22 -7 -13 -23 -31
-36 -41 -12 -10 -23 -25 -23 -33 0 -8 -4 -14 -10 -14 -13 0 -70 -57 -70 -70 0
-5 -11 -10 -24 -10 -17 0 -26 -7 -30 -23 -3 -13 -17 -29 -31 -35 -14 -6 -25
-18 -25 -26 0 -9 -13 -25 -29 -37 -16 -11 -35 -32 -42 -45 -7 -13 -21 -24 -30
-24 -10 0 -25 -13 -34 -29 -8 -17 -23 -36 -32 -43 -10 -7 -22 -20 -28 -29 -31
-50 -61 -89 -67 -89 -17 0 -61 -47 -73 -77 -8 -18 -21 -33 -29 -33 -9 0 -16
-4 -16 -9 0 -5 -16 -26 -35 -46 -19 -21 -37 -46 -40 -56 -4 -10 -17 -22 -31
-25 -14 -4 -27 -16 -30 -29 -3 -13 -19 -35 -35 -49 -16 -14 -29 -30 -29 -35 0
-5 -16 -26 -35 -47 -19 -21 -35 -46 -35 -56 0 -10 -11 -23 -25 -28 -13 -5 -27
-20 -30 -33 -4 -14 -17 -30 -30 -37 -13 -7 -26 -23 -29 -36 -4 -13 -11 -24
-16 -24 -6 0 -10 -7 -10 -15 0 -8 -5 -15 -10 -15 -6 0 -19 -17 -28 -38 -9 -21
-29 -50 -45 -65 -15 -16 -27 -34 -27 -41 0 -7 -11 -18 -24 -24 -13 -6 -26 -22
-29 -39 -3 -15 -22 -47 -41 -70 -20 -22 -36 -48 -36 -56 0 -8 -11 -22 -24 -30
-13 -9 -26 -27 -30 -41 -3 -14 -20 -39 -36 -56 -17 -17 -30 -39 -30 -50 0 -10
-5 -22 -10 -25 -16 -10 -60 -83 -60 -99 0 -8 -11 -23 -23 -33 -13 -10 -29 -35
-36 -55 -7 -20 -19 -42 -27 -49 -8 -6 -23 -30 -34 -53 -29 -58 -54 -100 -62
-104 -5 -2 -8 -14 -8 -27 0 -23 -23 -55 -40 -55 -5 0 -14 -18 -20 -41 -6 -22
-20 -49 -31 -60 -10 -10 -19 -27 -19 -36 0 -10 -7 -31 -15 -47 -8 -15 -15 -35
-15 -42 0 -8 -6 -14 -14 -14 -7 0 -21 -24 -31 -55 -9 -30 -21 -55 -26 -55 -5
0 -9 -7 -9 -15 0 -8 -7 -15 -15 -15 -9 0 -15 -9 -15 -25 0 -24 -19 -76 -31
-85 -4 -3 -16 -32 -28 -65 -12 -32 -28 -63 -36 -68 -8 -4 -15 -17 -15 -27 0
-10 -4 -22 -10 -25 -5 -3 -10 -21 -10 -40 0 -24 -9 -44 -30 -67 -22 -23 -30
-42 -30 -69 0 -22 -10 -50 -24 -71 -13 -20 -27 -55 -31 -79 -4 -24 -16 -56
-26 -71 -26 -35 -49 -103 -49 -140 0 -19 -11 -43 -30 -65 -26 -29 -30 -42 -30
-91 0 -48 -4 -61 -25 -81 -14 -13 -25 -30 -25 -39 0 -32 -33 -147 -46 -163 -8
-8 -14 -24 -14 -35 0 -11 -4 -24 -9 -29 -5 -6 -11 -41 -13 -79 -3 -42 -9 -71
-16 -74 -7 -2 -12 -8 -12 -14 0 -5 -7 -16 -15 -24 -10 -11 -15 -36 -15 -82 0
-55 -5 -74 -24 -103 -18 -26 -27 -58 -35 -129 -15 -132 -22 -173 -33 -187 -19
-23 -37 -129 -38 -215 0 -63 -4 -89 -14 -95 -28 -17 -46 -116 -46 -261 0 -130
-2 -142 -25 -187 -25 -46 -26 -56 -34 -309 -10 -308 3 -1756 16 -1765 5 -3 17
-17 26 -31 14 -20 17 -50 17 -182 0 -160 11 -220 47 -256 7 -7 13 -23 13 -35
1 -61 29 -280 37 -286 18 -13 33 -64 34 -114 1 -96 14 -159 37 -178 18 -14 22
-28 22 -76 1 -78 14 -131 39 -154 12 -11 21 -32 21 -47 0 -63 29 -176 49 -191
15 -12 21 -33 27 -89 5 -56 12 -80 30 -102 15 -18 24 -41 24 -63 0 -39 34
-127 49 -127 13 0 20 -23 31 -99 6 -45 15 -71 28 -82 11 -8 23 -35 27 -60 10
-67 14 -77 36 -84 15 -5 19 -16 19 -49 0 -23 7 -51 15 -62 8 -10 15 -25 15
-32 0 -7 9 -22 19 -34 11 -11 23 -39 26 -62 4 -22 18 -53 32 -67 15 -17 27
-44 30 -70 4 -28 15 -52 30 -66 12 -12 23 -28 23 -36 0 -21 39 -97 50 -97 6 0
10 -11 10 -25 0 -14 5 -25 10 -25 6 0 10 -10 10 -22 0 -12 12 -32 26 -45 19
-16 28 -35 31 -67 4 -33 12 -50 29 -61 14 -9 24 -25 24 -38 0 -12 13 -38 29
-57 16 -20 36 -58 45 -85 10 -27 25 -55 35 -62 10 -7 22 -25 26 -40 3 -15 31
-62 61 -106 30 -43 54 -83 54 -88 0 -5 4 -9 9 -9 5 0 12 -18 16 -40 5 -29 12
-40 25 -40 11 0 20 -10 24 -26 4 -14 20 -38 36 -54 17 -16 30 -40 30 -52 1
-26 22 -58 38 -58 5 0 12 -10 16 -22 3 -13 19 -39 36 -58 36 -42 39 -80 8
-122 -11 -17 -25 -47 -29 -67 -5 -20 -11 -49 -15 -66 -3 -16 -11 -34 -18 -40
-15 -13 -33 -69 -41 -126 -5 -32 -14 -51 -31 -64 -16 -12 -24 -28 -24 -49 0
-17 -7 -44 -15 -60 -8 -15 -15 -34 -15 -41 0 -7 -4 -15 -10 -17 -5 -1 -14 -26
-19 -55 -6 -28 -24 -85 -40 -125 -16 -40 -32 -90 -36 -110 -3 -21 -9 -38 -13
-38 -13 0 -40 -64 -45 -107 -3 -23 -15 -56 -28 -74 -12 -18 -26 -54 -30 -81
-4 -27 -22 -79 -39 -115 -18 -37 -34 -83 -38 -103 -3 -19 -8 -37 -12 -40 -24
-19 -40 -60 -40 -107 0 -48 -16 -83 -40 -83 -4 0 -11 -21 -14 -47 -8 -57 -35
-133 -47 -133 -5 0 -9 -10 -9 -22 0 -13 -7 -36 -15 -52 -8 -15 -15 -34 -15
-42 0 -7 -11 -33 -24 -57 -13 -25 -25 -68 -28 -97 -3 -29 -10 -55 -15 -59 -23
-16 -43 -59 -43 -94 0 -40 -24 -97 -40 -97 -6 0 -10 -6 -10 -14 0 -7 -7 -27
-15 -42 -8 -16 -15 -45 -15 -65 0 -25 -8 -44 -24 -60 -18 -19 -24 -38 -28 -87
-4 -52 -9 -67 -31 -88 -22 -20 -27 -33 -27 -74 0 -37 -6 -56 -22 -76 -13 -14
-31 -57 -40 -96 -10 -40 -28 -82 -43 -100 -15 -18 -25 -42 -25 -61 0 -64 -12
-105 -31 -110 -22 -6 -26 -60 -7 -102 13 -28 13 -28 93 -5 22 7 69 18 105 25
91 19 108 25 114 41 4 10 22 14 60 14 35 0 60 5 70 15 8 8 20 15 27 15 7 0 20
6 28 14 21 17 98 36 150 36 29 0 41 4 41 15 0 22 28 32 112 40 68 6 77 10 80
29 3 19 10 21 80 24 64 2 80 6 100 26 21 22 62 34 173 53 17 3 37 11 45 17 34
25 59 34 112 41 37 5 65 15 83 31 19 16 40 24 67 24 21 0 55 7 75 15 19 8 42
15 50 15 8 0 21 6 28 14 8 8 47 20 87 27 46 8 83 21 100 35 21 17 46 24 108
29 73 6 82 10 90 31 8 21 16 24 59 24 43 0 114 22 131 41 5 6 140 39 159 39 6
0 29 11 50 24 22 14 62 27 97 32 34 4 75 17 96 30 21 13 51 24 67 24 17 0 61
12 98 26 37 14 105 34 151 45 46 11 92 28 103 38 21 19 68 31 126 31 20 0 40
8 53 22 41 45 224 46 259 2 10 -12 30 -26 44 -30 15 -3 27 -12 27 -18 0 -7 25
-25 55 -41 30 -15 55 -31 55 -35 0 -4 17 -15 38 -26 20 -10 39 -22 42 -25 9
-11 84 -49 97 -49 7 0 20 -11 29 -25 9 -14 21 -25 27 -25 17 0 87 -33 87 -42
0 -11 55 -38 78 -38 10 0 27 -9 38 -21 10 -11 33 -27 50 -34 17 -7 40 -22 50
-33 10 -11 38 -23 62 -27 26 -4 46 -14 52 -26 6 -10 18 -19 28 -19 9 0 26 -7
36 -15 11 -8 26 -15 34 -15 8 0 24 -11 36 -23 13 -14 39 -27 64 -30 22 -4 53
-18 67 -31 14 -13 46 -29 71 -36 25 -7 48 -19 51 -27 3 -7 13 -13 22 -13 10 0
26 -7 37 -15 10 -8 33 -15 50 -15 19 0 42 -10 58 -25 15 -14 38 -25 51 -25 33
0 70 -15 92 -38 10 -11 37 -22 60 -26 23 -3 72 -22 109 -41 42 -22 81 -35 105
-35 29 0 42 -6 54 -24 13 -19 27 -24 76 -29 34 -3 71 -13 86 -24 42 -29 45
-31 108 -43 54 -11 118 -34 167 -61 10 -5 42 -9 72 -9 44 0 56 -4 68 -22 13
-19 27 -23 104 -29 49 -4 90 -12 92 -18 2 -6 10 -11 18 -11 8 0 17 -6 20 -14
3 -9 33 -15 94 -19 60 -5 99 -13 122 -26 39 -23 182 -51 256 -51 29 0 52 -4
52 -8 0 -18 111 -41 216 -46 92 -4 120 -9 160 -29 45 -22 64 -25 249 -31 185
-6 275 -18 275 -37 0 -11 157 -18 580 -25 493 -7 1008 9 1060 33 38 18 181 31
346 32 93 1 105 3 140 28 35 23 52 27 164 34 128 7 230 25 230 39 0 10 95 27
200 36 71 5 89 10 109 30 21 21 33 24 103 24 78 0 111 10 158 46 8 7 40 14 70
17 73 7 113 17 125 31 9 12 87 32 163 43 17 3 32 9 32 14 0 5 6 9 14 9 7 0 27
7 42 15 16 8 45 15 64 15 22 0 52 11 80 30 26 18 58 30 77 30 17 0 35 5 38 10
3 6 17 10 31 10 14 0 27 7 30 15 4 8 17 15 29 15 13 0 26 4 30 10 3 5 32 12
65 16 33 4 60 10 60 15 0 19 34 39 68 39 43 0 55 7 71 37 9 18 21 23 48 23 36
0 113 28 113 40 0 4 28 15 63 25 34 10 75 29 90 42 17 14 42 23 61 23 32 0 66
25 66 48 0 7 11 12 25 12 29 0 92 28 117 52 10 10 35 20 56 24 26 4 41 13 48
27 6 14 20 23 39 25 46 4 84 22 90 43 4 12 16 19 31 19 13 0 24 5 24 10 0 6 6
10 13 10 7 0 28 11 47 23 19 13 46 27 60 30 14 4 37 18 52 31 14 14 38 28 53
32 14 3 33 17 42 30 9 14 25 24 39 24 13 0 24 5 24 10 0 6 7 10 15 10 8 0 25
11 37 25 12 14 30 25 39 25 10 0 32 13 49 29 18 16 45 32 61 35 19 4 33 14 39
31 7 19 17 25 40 25 23 0 33 6 42 25 6 14 16 25 21 25 26 0 86 37 91 56 4 15
17 24 40 28 21 4 36 13 39 25 2 10 26 29 53 42 26 13 58 34 70 46 13 13 32 23
44 23 15 0 20 6 20 25 0 20 5 25 25 25 18 0 29 8 37 26 7 14 30 34 52 44 23
10 54 30 70 44 16 15 35 26 42 26 8 0 16 11 20 24 3 14 15 27 29 30 13 3 26
15 30 25 3 11 19 24 36 30 19 6 33 21 40 39 8 24 18 31 52 38 31 7 45 16 55
37 7 15 16 27 20 27 5 0 27 18 51 40 23 22 46 40 50 40 4 0 13 11 19 25 7 15
20 25 32 25 11 0 20 7 20 15 0 8 12 22 28 32 36 23 52 39 52 52 0 6 13 17 30
26 17 9 30 22 30 30 0 8 14 21 30 30 18 9 30 23 30 35 0 13 7 20 20 20 12 0
26 12 35 30 9 16 20 30 25 30 15 0 178 167 182 186 2 10 14 21 28 24 18 4 26
14 28 33 3 21 9 27 28 27 17 0 24 5 24 20 0 12 10 25 25 32 13 6 27 20 31 30
3 11 34 48 67 82 64 64 80 85 97 123 5 12 18 27 29 32 11 6 21 21 23 33 2 14
12 24 28 28 16 4 26 14 28 28 2 13 14 27 28 32 14 6 24 18 24 28 0 11 12 33
28 50 45 50 52 61 52 75 0 7 14 23 30 35 17 13 30 27 30 33 0 14 26 39 40 39
6 0 13 14 17 30 3 17 9 30 12 30 9 0 61 78 61 91 0 4 14 18 30 31 18 13 30 31
30 45 0 13 5 23 11 23 17 0 35 23 43 53 3 15 11 27 16 27 6 0 10 6 10 13 0 8
11 24 25 37 14 13 25 31 25 41 0 9 7 19 15 23 8 3 15 10 15 16 0 12 32 60 66
100 12 14 29 46 39 72 9 26 26 56 36 67 10 11 19 29 19 41 0 13 9 24 25 30 18
7 28 22 37 55 7 27 19 47 30 51 12 3 20 19 24 45 4 21 10 39 15 39 5 0 9 7 9
14 0 8 11 27 25 42 14 15 25 37 25 49 0 13 7 28 15 35 8 7 15 19 15 27 0 7 7
16 15 19 8 4 15 17 15 30 0 13 4 24 8 24 8 0 52 80 52 93 0 4 14 30 31 58 18
28 36 71 40 96 6 28 17 52 33 64 14 11 26 33 30 57 3 21 14 46 25 56 10 10 22
38 26 64 4 26 15 58 25 72 23 33 50 98 50 122 0 10 7 21 15 24 8 4 15 14 15
24 0 10 7 23 15 30 8 7 15 25 15 41 0 34 13 71 32 90 15 14 36 79 45 136 3 18
9 33 13 33 4 0 10 8 14 18 26 74 36 110 36 126 0 10 10 27 21 37 17 14 24 35
29 86 4 40 15 83 27 104 12 20 26 65 33 100 19 110 23 123 36 137 8 7 14 24
14 37 0 13 4 26 9 29 4 3 11 33 14 66 4 36 17 78 31 103 19 33 25 61 29 133 3
67 10 102 25 130 15 28 26 79 37 184 9 79 20 147 24 150 20 13 34 88 41 223 4
81 12 153 18 160 5 6 13 31 17 54 4 24 11 45 16 49 5 3 9 130 9 292 l0 287 25
44 25 43 0 385 0 385 -25 30 -25 30 0 291 c0 293 -6 360 -36 384 -11 8 -18 46
-25 130 -19 240 -25 282 -43 301 -12 15 -19 50 -26 133 -5 63 -10 122 -10 131
0 9 -11 30 -25 46 -18 22 -25 42 -25 72 0 60 -28 197 -50 245 -11 22 -23 74
-28 116 -7 53 -17 86 -32 107 -17 22 -24 49 -28 101 -4 57 -9 74 -28 92 -17
16 -24 34 -24 58 0 40 -29 131 -42 131 -4 0 -8 7 -8 17 0 23 -29 123 -46 156
-8 16 -14 37 -14 48 0 10 -4 19 -9 19 -5 0 -12 23 -16 52 -5 35 -15 58 -31 73
-15 14 -24 33 -24 53 0 29 -34 110 -52 123 -4 3 -15 35 -24 72 -12 46 -22 68
-35 72 -13 5 -20 20 -25 56 -5 35 -14 55 -30 68 -16 13 -24 29 -24 51 0 31
-27 90 -41 90 -4 0 -15 25 -24 55 -10 30 -24 60 -31 66 -8 6 -14 18 -14 25 0
8 -4 14 -9 14 -5 0 -13 15 -17 32 -3 18 -17 47 -30 64 -13 17 -24 39 -24 49 0
10 -18 46 -40 81 -22 35 -40 71 -40 79 0 9 -11 27 -25 40 -15 13 -29 39 -32
60 -4 23 -15 42 -29 52 -13 8 -24 24 -24 35 0 20 -26 66 -47 83 -7 6 -19 27
-28 48 -8 20 -20 37 -25 37 -6 0 -10 9 -10 20 0 11 -7 23 -15 26 -8 4 -15 17
-15 30 0 13 -8 28 -19 33 -10 6 -31 35 -47 66 -15 31 -36 61 -46 66 -10 5 -18
18 -18 29 0 29 -11 50 -26 50 -8 0 -22 15 -31 34 -28 54 -85 136 -95 136 -5 0
-18 19 -28 43 -11 24 -31 56 -45 71 -14 15 -25 30 -25 34 0 4 -14 23 -30 42
-46 53 -50 58 -50 70 0 5 -6 10 -14 10 -7 0 -17 8 -20 18 -14 37 -38 72 -57
82 -10 6 -19 16 -19 23 0 7 -18 32 -40 56 -22 23 -40 47 -40 52 0 5 -7 9 -15
9 -8 0 -15 7 -15 15 0 8 -4 15 -9 15 -5 0 -12 11 -15 25 -4 15 -14 25 -24 25
-10 0 -22 12 -29 30 -8 20 -18 30 -32 30 -14 0 -21 6 -21 20 0 11 -7 23 -15
26 -8 4 -15 12 -15 18 0 7 -13 25 -30 39 -16 15 -30 34 -30 42 0 8 -9 15 -20
15 -14 0 -22 10 -28 33 -4 17 -17 37 -28 42 -27 13 -54 41 -54 54 0 6 -5 11
-11 11 -15 0 -35 22 -43 47 -4 12 -18 24 -31 27 -18 5 -25 13 -25 30 0 17 -7
26 -24 30 -13 3 -34 22 -46 41 -12 19 -28 35 -36 35 -8 0 -19 11 -24 25 -5 14
-20 27 -35 31 -18 4 -25 13 -25 30 0 13 -6 24 -13 24 -14 0 -64 42 -162 138
-36 34 -69 62 -73 62 -5 0 -14 11 -20 25 -6 14 -18 25 -27 25 -8 0 -45 29 -81
65 -37 36 -70 65 -75 65 -5 0 -28 18 -50 40 -23 22 -47 40 -54 40 -7 0 -16 11
-19 25 -4 17 -16 27 -39 33 -22 6 -33 15 -35 30 -2 15 -10 22 -25 22 -12 0
-31 10 -42 23 -23 25 -52 45 -77 53 -10 4 -18 11 -18 16 0 14 -42 47 -61 48
-9 0 -20 11 -23 24 -3 14 -16 26 -31 30 -14 4 -25 11 -25 16 0 6 -7 10 -15 10
-8 0 -15 4 -15 10 0 5 -11 12 -25 16 -14 3 -25 10 -25 15 0 5 -7 9 -15 9 -8 0
-22 11 -31 25 -9 14 -26 25 -38 25 -12 0 -29 12 -41 30 -11 16 -28 30 -37 30
-10 0 -33 14 -51 30 -19 17 -42 30 -51 30 -9 0 -28 11 -42 25 -14 14 -31 25
-39 25 -7 0 -20 6 -27 13 -7 7 -21 16 -31 20 -11 4 -21 16 -24 28 -4 12 -17
22 -34 26 -16 3 -29 9 -29 14 0 5 -7 9 -15 9 -8 0 -15 3 -15 8 0 4 -21 16 -46
26 -26 10 -59 32 -76 47 -16 16 -39 29 -53 29 -13 0 -32 11 -43 25 -11 14 -27
25 -35 25 -9 0 -29 11 -45 25 -17 14 -53 33 -81 42 -28 9 -51 22 -51 30 0 7
-11 13 -25 13 -14 0 -28 7 -31 15 -4 8 -17 15 -29 15 -23 0 -55 23 -55 40 0 4
-22 11 -50 15 -36 5 -51 12 -55 26 -4 10 -18 21 -33 25 -15 3 -37 7 -50 10
-12 2 -31 12 -40 22 -31 29 -79 52 -110 52 -20 0 -35 8 -45 24 -11 17 -29 26
-61 30 -25 4 -48 11 -51 17 -4 5 -14 9 -25 9 -10 0 -20 7 -24 15 -3 8 -13 15
-23 15 -26 0 -88 23 -108 40 -22 18 -83 40 -112 40 -13 0 -23 6 -23 13 0 8
-19 19 -42 26 -98 28 -143 44 -149 54 -4 5 -27 13 -50 18 -100 18 -134 28
-137 38 -7 22 -62 41 -116 41 -45 0 -59 4 -78 24 -19 20 -36 25 -103 29 -44 3
-81 11 -83 17 -9 27 -36 37 -107 43 -48 3 -92 14 -122 28 -50 24 -149 48 -201
49 -18 0 -52 11 -75 24 -34 20 -62 26 -149 31 -60 4 -108 11 -108 15 0 19
-227 60 -333 60 -28 0 -49 5 -54 14 -4 7 -32 16 -63 19 -30 3 -89 11 -130 16
-41 6 -128 10 -193 11 -86 0 -124 4 -140 15 -12 8 -63 19 -112 25 -111 12
-1283 11 -1375 -2z"/>
</g>
</svg>
